<?xml version="1.0" encoding="UTF-8"?>
<svg version="1.1" xmlns="http://www.w3.org/2000/svg" width="512" height="512">
<path d="M0 0 C1.299375 -0.01546875 1.299375 -0.01546875 2.625 -0.03125 C5 0.5 5 0.5 6.55200195 2.1394043 C8.31573315 5.01472328 8.87522217 7.4938571 9.54296875 10.80078125 C9.93971802 12.70682129 9.93971802 12.70682129 10.34448242 14.65136719 C10.48115326 15.32792358 10.6178241 16.00447998 10.75863647 16.70153809 C11.49776878 20.33971214 12.2811405 23.96835668 13.0625 27.59765625 C13.22280197 28.34409393 13.38310394 29.09053162 13.54826355 29.85958862 C26.73310365 90.90181585 50.27426788 150.75858914 82 204.5 C82.55268555 205.44294922 83.10537109 206.38589844 83.67480469 207.35742188 C95.17906923 226.91400777 107.805198 245.78435229 122 263.5 C122.50096191 264.1295459 123.00192383 264.7590918 123.51806641 265.40771484 C129.65353452 273.10882327 135.87467712 280.6657309 142.5859375 287.875 C144.46335136 289.91645973 146.27187812 291.98383179 148.07421875 294.08984375 C152.46655575 299.12602789 157.18281839 303.83301931 161.9152832 308.5456543 C163.43491668 310.0599258 164.94912517 311.5794743 166.46289062 313.09960938 C171.80268242 318.44332757 177.23489542 323.61281359 183 328.5 C183.96421875 329.345625 184.9284375 330.19125 185.921875 331.0625 C245.07565778 382.04587079 316.24999301 412.9967305 392 429.5 C391.62230469 428.25476563 391.24460937 427.00953125 390.85546875 425.7265625 C386.91789772 412.569164 383.28005532 399.33603998 379.76260376 386.06097412 C379.25373901 384.143583 378.74199355 382.22695412 378.22738647 380.31109619 C377.49726636 377.58846991 376.77836776 374.86312224 376.0625 372.13671875 C375.83891312 371.30954849 375.61532623 370.48237823 375.38496399 369.63014221 C373.88557811 363.84326567 373.88557811 363.84326567 375 360.5 C375.6290625 361.14066406 376.258125 361.78132813 376.90625 362.44140625 C382.10109188 367.69101303 387.32904663 372.76963954 393 377.5 C393.53834473 377.95213867 394.07668945 378.40427734 394.63134766 378.87011719 C404.71597837 387.31218569 415.13792413 395.09038192 426 402.5 C426.71913574 402.9935498 427.43827148 403.48709961 428.17919922 403.99560547 C445.51734911 415.8646486 463.56338389 426.44168901 482 436.5 C482.96486328 437.02754883 483.92972656 437.55509766 484.92382812 438.09863281 C491.27857748 441.57307095 497.63735048 445.04005175 504 448.5 C503 450.5 503 450.5 500.8840332 451.28686523 C499.94906006 451.54153564 499.01408691 451.79620605 498.05078125 452.05859375 C496.99076904 452.35596436 495.93075684 452.65333496 494.83862305 452.9597168 C493.67500244 453.28238525 492.51138184 453.60505371 491.3125 453.9375 C447.16666489 466.64690781 402.68740079 485.16097609 364.84545898 511.38525391 C363 512.5 363 512.5 361 512.5 C362.58884609 507.29541053 364.76282922 502.49064205 367.0703125 497.578125 C367.47023407 496.71926697 367.87015564 495.86040894 368.28219604 494.9755249 C369.56007095 492.23224381 370.84222822 489.49099427 372.125 486.75 C373.79636149 483.17284726 375.46561917 479.59472227 377.1328125 476.015625 C377.54009583 475.14151978 377.94737915 474.26741455 378.36700439 473.36682129 C382.35075495 464.79135664 386.19412537 456.15561601 390 447.5 C389.23896973 447.34031738 388.47793945 447.18063477 387.69384766 447.01611328 C343.84539148 437.7137387 301.99511321 424.12861736 262.04248047 403.54785156 C259.91078886 402.4542321 257.77002626 401.37971503 255.62890625 400.3046875 C221.22848267 382.8327388 190.41242471 359.44560954 162 333.5 C161.05511719 332.64792969 160.11023438 331.79585938 159.13671875 330.91796875 C149.91192364 322.57437957 140.82297632 314.02243833 132.7578125 304.53515625 C130.6473586 302.09171962 128.44707121 299.74081179 126.25 297.375 C121.01109263 291.62324778 116.23687643 285.58001213 111.49365234 279.41748047 C109.98351658 277.47883936 108.44346394 275.56790023 106.89453125 273.66015625 C85.54778322 247.15010389 67.8226923 217.56361753 52 187.5 C51.48324707 186.51854004 50.96649414 185.53708008 50.43408203 184.52587891 C27.79618005 141.18011461 10.90307674 94.84549487 -0.9375 47.4375 C-1.12322571 46.69449646 -1.30895142 45.95149292 -1.50030518 45.18597412 C-10.46151694 9.11335917 -10.46151694 9.11335917 -6.7890625 2.23046875 C-4.4594935 -0.02280432 -3.20173689 -0.03811592 0 0 Z " fill="#000000" transform="translate(8,-0.5)"/>
</svg>
